<svg width="20" height="21" viewBox="0 0 20 21" fill="none" xmlns="http://www.w3.org/2000/svg">
<path d="M5.09999 9.34996C5.33332 8.88329 5.57499 8.43329 5.82499 7.99996C6.07499 7.56663 6.34999 7.13329 6.64999 6.69996L5.24999 6.42496L3.14999 8.52496L5.09999 9.34996ZM17.15 2.47496C15.9833 2.50829 14.7377 2.84996 13.413 3.49996C12.0877 4.14996 10.8833 5.01663 9.79999 6.09996C9.09999 6.79996 8.47499 7.54996 7.92499 8.34996C7.37499 9.14996 6.96665 9.89996 6.69999 10.6L9.54999 13.425C10.25 13.1583 11 12.75 11.8 12.2C12.6 11.65 13.35 11.025 14.05 10.325C15.1333 9.24163 16 8.04163 16.65 6.72496C17.3 5.40829 17.6417 4.16663 17.675 2.99996C17.675 2.93329 17.6627 2.86663 17.638 2.79996C17.6127 2.73329 17.575 2.67496 17.525 2.62496C17.475 2.57496 17.4167 2.53729 17.35 2.51196C17.2833 2.48729 17.2167 2.47496 17.15 2.47496ZM11.65 8.47496C11.2667 8.09163 11.075 7.62063 11.075 7.06196C11.075 6.50396 11.2667 6.03329 11.65 5.64996C12.0333 5.26663 12.5083 5.07496 13.075 5.07496C13.6417 5.07496 14.1167 5.26663 14.5 5.64996C14.8833 6.03329 15.075 6.50396 15.075 7.06196C15.075 7.62063 14.8833 8.09163 14.5 8.47496C14.1167 8.85829 13.6417 9.04996 13.075 9.04996C12.5083 9.04996 12.0333 8.85829 11.65 8.47496ZM10.8 15.025L11.625 17L13.725 14.9L13.45 13.5C13.0167 13.8 12.5833 14.0706 12.15 14.312C11.7167 14.554 11.2667 14.7916 10.8 15.025ZM19.575 1.67496C19.7083 3.50829 19.4083 5.29562 18.675 7.03696C17.9417 8.77896 16.7833 10.4416 15.2 12.025L15.7 14.5C15.7667 14.8333 15.75 15.1583 15.65 15.475C15.55 15.7916 15.3833 16.0666 15.15 16.3L12 19.45C11.75 19.7 11.45 19.7956 11.1 19.737C10.75 19.679 10.5083 19.4833 10.375 19.15L8.84999 15.575L4.57499 11.3L0.999988 9.77496C0.666654 9.64163 0.466655 9.39996 0.399988 9.04996C0.333321 8.69996 0.424988 8.39996 0.674988 8.14996L3.82499 4.99996C4.05832 4.76663 4.33765 4.59996 4.66299 4.49996C4.98765 4.39996 5.31665 4.38329 5.64999 4.44996L8.12499 4.94996C9.70832 3.36662 11.371 2.20829 13.113 1.47496C14.8543 0.741625 16.6417 0.441625 18.475 0.574959C18.6083 0.591625 18.7417 0.628959 18.875 0.686959C19.0083 0.745625 19.125 0.824959 19.225 0.924959C19.325 1.02496 19.404 1.14163 19.462 1.27496C19.5207 1.40829 19.5583 1.54163 19.575 1.67496ZM1.92499 13.975C2.50832 13.3916 3.22065 13.0956 4.06199 13.087C4.90399 13.079 5.61665 13.3666 6.19999 13.95C6.78332 14.5333 7.07065 15.2456 7.06199 16.087C7.05399 16.929 6.75832 17.6416 6.17499 18.225C5.75832 18.6416 5.06265 19 4.08799 19.3C3.11265 19.6 1.76665 19.8666 0.0499878 20.1C0.283321 18.3833 0.549988 17.0373 0.849988 16.062C1.14999 15.0873 1.50832 14.3916 1.92499 13.975ZM3.34999 15.375C3.18332 15.5416 3.01665 15.846 2.84999 16.288C2.68332 16.7293 2.56665 17.175 2.49999 17.625C2.94999 17.5583 3.39599 17.446 3.83799 17.288C4.27932 17.1293 4.58332 16.9666 4.74999 16.8C4.94999 16.6 5.05832 16.3583 5.07499 16.075C5.09165 15.7916 4.99999 15.55 4.79999 15.35C4.59999 15.15 4.35832 15.054 4.07499 15.062C3.79165 15.0706 3.54999 15.175 3.34999 15.375Z" fill="white"/>
</svg>
